<svg width="160" height="160" viewBox="0 0 160 160" fill="none" xmlns="http://www.w3.org/2000/svg">
<g clip-path="url(#clip0_4_3138)">
<path d="M57.0751 98.3582C56.5776 96.1027 55.4677 93.5294 56.2961 92.02C59.2174 86.6973 62.9017 81.7996 66.0835 76.6101C67.1882 74.8084 68.1683 72.6673 68.337 70.61C68.6841 66.375 68.5158 62.0908 68.4321 57.8293C68.3153 51.8872 72.5442 48.5146 75.4916 44.3751C75.8235 44.4624 76.1554 44.5498 76.4873 44.6371C76.568 45.8861 76.716 47.1349 76.7188 48.384C76.7389 57.4432 76.7297 66.5024 76.7298 75.5616C76.7298 83.3846 76.7297 83.3846 68.6432 86.5128C68.5694 85.1026 68.4788 83.8782 68.4484 82.6523C68.4161 81.3533 68.4411 80.0529 68.4411 78.7532C68.027 78.5639 67.6128 78.3747 67.1986 78.1855C65.1017 81.4025 62.6849 84.4628 61.0083 87.8857C59.6463 90.6662 61.1413 92.2466 64.3514 91.5571C67.1826 90.949 70.0431 90.0474 72.6146 88.7344C83.9837 82.9296 94.0589 75.3594 102.569 65.8059C104.06 64.1321 105.44 62.2618 106.414 60.2598C107.036 58.9826 106.816 57.2961 106.974 55.7931C105.316 55.6575 103.498 55.048 102.052 55.5385C100.927 55.9205 99.3938 57.8002 99.5401 58.7935C100.484 65.1994 95.9482 67.8886 91.6039 71.4993C91.6039 58.7502 91.6039 46.5419 91.6039 34.2371C96.3038 35.4846 99.2513 38.7988 99.3643 42.8253C99.4524 45.9649 99.3819 49.109 99.3819 52.3922C103.224 51.2404 106.443 49.7668 109.775 49.4423C112.313 49.1949 116.339 49.6059 117.269 51.1705C118.41 53.0915 117.95 57.1773 116.544 59.1695C112.353 65.1033 107.569 70.6667 102.584 75.9678C100.415 78.2747 98.9743 80.295 99.362 83.5348C100.117 89.8482 95.765 93.5708 91.4563 97.5691C91.4563 93.8141 91.4563 90.0591 91.4563 86.3042C90.9662 86.147 90.4761 85.9898 89.9861 85.8326C89.3285 87.2208 88.2596 88.5639 88.1013 90.0069C87.7982 92.7714 87.7549 95.6214 88.0635 98.3846C88.7945 104.931 84.3578 108.708 80.1536 112.966C80.1536 106.558 80.1536 100.149 80.1536 93.7405C79.6795 93.5334 79.2053 93.3262 78.7312 93.1191C78.0657 94.2235 76.8921 95.2985 76.8261 96.4376C76.5917 100.486 76.7346 104.556 76.7346 108.734C71.6759 107.745 69.5187 105.08 67.8982 98.5284C64.3777 98.5284 60.8646 98.5284 57.0751 98.3582Z" fill="#003049"/>
<path d="M88.0055 52.8C88.0055 58.1183 87.5207 63.0973 88.1262 67.9399C88.9131 74.2327 85.939 77.5448 80.1152 79.8662C80.0421 78.432 79.9162 77.0889 79.9142 75.7457C79.8981 64.9786 80.2308 54.198 79.7848 43.4494C79.5122 36.8784 83.5929 33.1282 86.7925 28.6485C87.1968 28.7085 87.6012 28.7684 88.0055 28.8283C88.0055 36.6856 88.0055 44.5428 88.0055 52.8Z" fill="#003049"/>
</g>
<defs>
<clipPath id="clip0_4_3138">
<rect width="160" height="160" fill="white"/>
</clipPath>
</defs>
</svg>
